<svg width="24" height="24" viewBox="0 0 24 24" fill="none" xmlns="http://www.w3.org/2000/svg">
<path d="M9.05 18.15C10.68 18.15 11.61 17.41 11.61 16.4C11.61 15.53 11.19 14.97 9.98 14.75C11.05 14.48 11.43 13.85 11.43 13.28C11.43 12.39 10.73 11.69 9.16 11.69C8.07 11.69 7.08 12.18 7.14 13.33C7.28 13.52 7.49 13.62 7.72 13.63C7.72 13.63 7.73 13.63 7.74 13.63C8.15 13.65 8.5 13.33 8.52 12.92L8.61 12.24C8.61 12.24 8.66 12.23 8.69 12.23C9.27 12.23 9.62 12.58 9.62 13.35C9.62 14.22 9.2 14.53 8.5 14.53H8.25V15.1H8.54C8.62 15.1 8.71 15.1 8.79 15.1C9.37 15.18 9.78 15.72 9.7 16.31C9.7 17.23 9.26 17.61 8.43 17.61C8.39 17.61 8.36 17.6 8.33 17.6L8.27 16.89C8.2 16.14 7.92 15.95 7.48 15.95C7.18 15.95 6.91 16.14 6.82 16.43C6.82 17.49 7.54 18.15 9.06 18.15H9.05Z" fill="#1C1B1F"/>
<path d="M14.66 18.15C15.96 18.15 17.1 17.13 17.1 14.92C17.1 12.71 15.96 11.69 14.66 11.69C13.36 11.69 12.25 12.7 12.25 14.92C12.25 17.14 13.36 18.15 14.66 18.15ZM14.66 12.23C15.07 12.23 15.38 12.75 15.38 14.93C15.38 17.11 15.07 17.62 14.66 17.62C14.25 17.62 13.97 17.11 13.97 14.93C13.97 12.74 14.25 12.23 14.66 12.23Z" fill="#1C1B1F"/>
<path d="M19 4H18V3C18 2.45 17.55 2 17 2C16.45 2 16 2.45 16 3V4H8V3C8 2.45 7.55 2 7 2C6.45 2 6 2.45 6 3V4H5C3.9 4 3 4.9 3 6V20C3 21.1 3.9 22 5 22H19C20.1 22 21 21.1 21 20V6C21 4.9 20.1 4 19 4ZM19 20H5V10H19V20ZM19 8H5V6H19V8Z" fill="#1C1B1F"/>
</svg>
