<svg width="24" height="24" viewBox="0 0 24 24" fill="none" xmlns="http://www.w3.org/2000/svg">
<path d="M5 22C3.9 22 3 21.1 3 20V6C3 4.9 3.9 4 5 4H6V3C6 2.45 6.45 2 7 2C7.55 2 8 2.45 8 3V4H16V3C16 2.45 16.45 2 17 2C17.55 2 18 2.45 18 3V4H19C20.1 4 21 4.9 21 6V20C21 21.1 20.1 22 19 22H5ZM5 20H19V10H5V20ZM5 8H19V6H5V8Z" fill="black"/>
<path d="M7.86937 17.7812H10.6194C10.8994 17.7812 11.1394 17.6813 11.3294 17.4913C11.5194 17.3013 11.6194 17.0613 11.6194 16.7812V12.7812C11.6194 12.5012 11.5194 12.2612 11.3294 12.0712C11.1394 11.8812 10.8994 11.7812 10.6194 11.7812H7.83938C7.63938 11.7812 7.46937 11.8513 7.32937 11.9913C7.18937 12.1313 7.11937 12.3113 7.11937 12.5312C7.11937 12.7512 7.18937 12.9312 7.32937 13.0712C7.46937 13.2112 7.64937 13.2812 7.86937 13.2812H10.1194V14.2812H8.58938C8.45938 14.2812 8.33937 14.3313 8.24937 14.4313C8.15937 14.5313 8.10938 14.6513 8.10938 14.7812C8.10938 14.9112 8.15938 15.0313 8.25938 15.1313C8.35938 15.2313 8.47938 15.2812 8.60938 15.2812H10.1094V16.2812H7.82937C7.62937 16.2812 7.45938 16.3513 7.31938 16.4913C7.17938 16.6313 7.10938 16.8113 7.10938 17.0312C7.10938 17.2512 7.17938 17.4312 7.31938 17.5712C7.45938 17.7112 7.63938 17.7812 7.85938 17.7812H7.86937Z" fill="#F16E00"/>
<path d="M16.5889 12.0712C16.3989 11.8812 16.1589 11.7812 15.8789 11.7812H13.3789C13.0989 11.7812 12.8589 11.8812 12.6689 12.0712C12.4789 12.2612 12.3789 12.5012 12.3789 12.7812V16.7812C12.3789 17.0613 12.4789 17.3013 12.6689 17.4913C12.8589 17.6813 13.0989 17.7812 13.3789 17.7812H15.8789C16.1589 17.7812 16.3989 17.6813 16.5889 17.4913C16.7789 17.3013 16.8789 17.0613 16.8789 16.7812V12.7812C16.8789 12.5012 16.7789 12.2612 16.5889 12.0712ZM15.3789 16.7713H13.8789V12.7713H15.3789V16.7713Z" fill="#F16E00"/>
</svg>
