<svg width="24" height="24" viewBox="0 0 24 24" fill="none" xmlns="http://www.w3.org/2000/svg">
<path d="M11.8 14C11.54 14 11.28 13.9 11.1 13.71C10.91 13.52 10.81 13.26 10.82 13C10.82 12.73 10.92 12.48 11.1 12.29C11.28 12.1 11.54 12 11.8 12C12.06 12 12.32 12.1 12.5 12.29C12.69 12.48 12.79 12.74 12.78 13C12.78 13.27 12.69 13.52 12.5 13.71C12.32 13.9 12.06 14 11.8 14ZM7.89 14C7.63 14 7.37 13.9 7.19 13.71C7 13.52 6.9 13.26 6.91 13C6.91 12.73 7.01 12.48 7.19 12.29C7.37 12.1 7.63 12 7.89 12C8.15 12 8.41 12.1 8.59 12.29C8.78 12.48 8.88 12.74 8.87 13C8.87 13.27 8.78 13.52 8.59 13.71C8.41 13.9 8.15 14 7.89 14ZM15.71 14C15.45 14 15.19 13.9 15.01 13.71C14.82 13.52 14.72 13.26 14.73 13C14.73 12.73 14.83 12.48 15.01 12.29C15.19 12.1 15.45 12 15.71 12C15.97 12 16.23 12.1 16.41 12.29C16.6 12.48 16.7 12.74 16.69 13C16.69 13.27 16.6 13.52 16.41 13.71C16.23 13.9 15.97 14 15.71 14ZM11.8 18C11.54 18 11.28 17.9 11.1 17.71C10.91 17.52 10.81 17.26 10.82 17C10.82 16.73 10.92 16.48 11.1 16.29C11.28 16.1 11.54 15.99 11.8 16C12.06 16 12.32 16.1 12.5 16.29C12.69 16.48 12.79 16.74 12.78 17C12.78 17.27 12.69 17.52 12.5 17.71C12.32 17.9 12.06 18 11.8 18ZM7.89 18C7.63 18 7.37 17.9 7.19 17.71C7 17.52 6.9 17.26 6.91 17C6.91 16.73 7.01 16.48 7.19 16.29C7.37 16.1 7.63 16 7.89 16C8.15 16 8.41 16.1 8.59 16.29C8.78 16.48 8.88 16.74 8.87 17C8.87 17.27 8.78 17.52 8.59 17.71C8.41 17.9 8.15 18 7.89 18ZM15.71 18C15.45 18 15.19 17.9 15.01 17.71C14.82 17.52 14.72 17.26 14.73 17C14.73 16.73 14.83 16.48 15.01 16.29C15.19 16.1 15.45 15.99 15.71 16C15.97 16 16.23 16.1 16.41 16.29C16.6 16.48 16.7 16.74 16.69 17C16.69 17.27 16.6 17.52 16.41 17.71C16.23 17.9 15.97 18 15.71 18ZM4.96 22C4.44 22 3.94 21.79 3.58 21.41C3.2 21.04 3 20.53 3 20V6C3 5.47 3.2 4.96 3.57 4.59C3.93 4.21 4.43 4 4.95 4H5.93V3C5.93 2.73 6.03 2.48 6.21 2.29C6.4 2.1 6.65 2 6.92 2C7.18 2 7.44 2.1 7.62 2.29C7.81 2.48 7.91 2.74 7.9 3V4H15.72V3C15.72 2.73 15.82 2.48 16 2.29C16.18 2.1 16.44 2 16.7 2C16.96 2 17.22 2.1 17.4 2.29C17.59 2.48 17.69 2.74 17.68 3V4H18.66C19.18 4 19.68 4.21 20.04 4.59C20.42 4.96 20.62 5.47 20.61 6V20C20.61 20.53 20.41 21.04 20.04 21.41C19.68 21.79 19.18 22 18.66 22H4.96ZM4.96 20H18.64V10H4.96V20ZM4.96 8H18.64V6H4.96V8ZM4.96 8V6V8Z" fill="#1C1B1F"/>
</svg>
