<svg width="24" height="24" viewBox="0 0 24 24" fill="none" xmlns="http://www.w3.org/2000/svg">
<path d="M11.795 14C11.5352 14 11.2753 13.9 11.0954 13.71C10.9055 13.52 10.8056 13.26 10.8156 13C10.8156 12.73 10.9155 12.48 11.0954 12.29C11.2753 12.1 11.5352 12 11.795 12C12.0549 12 12.3147 12.1 12.4946 12.29C12.6845 12.48 12.7844 12.74 12.7744 13C12.7744 13.27 12.6845 13.52 12.4946 13.71C12.3147 13.9 12.0549 14 11.795 14ZM7.88722 14C7.62737 14 7.36752 13.9 7.18762 13.71C6.99773 13.52 6.89779 13.26 6.90778 13C6.90778 12.73 7.00772 12.48 7.18762 12.29C7.36752 12.1 7.62737 12 7.88722 12C8.14708 12 8.40693 12.1 8.58683 12.29C8.77672 12.48 8.87666 12.74 8.86667 13C8.86667 13.27 8.77672 13.52 8.58683 13.71C8.40693 13.9 8.14708 14 7.88722 14ZM15.7028 14C15.4429 14 15.1831 13.9 15.0032 13.71C14.8133 13.52 14.7133 13.26 14.7233 13C14.7233 12.73 14.8233 12.48 15.0032 12.29C15.1831 12.1 15.4429 12 15.7028 12C15.9626 12 16.2225 12.1 16.4024 12.29C16.5923 12.48 16.6922 12.74 16.6822 13C16.6822 13.27 16.5923 13.52 16.4024 13.71C16.2225 13.9 15.9626 14 15.7028 14ZM11.795 18C11.5352 18 11.2753 17.9 11.0954 17.71C10.9055 17.52 10.8056 17.26 10.8156 17C10.8156 16.73 10.9155 16.48 11.0954 16.29C11.2753 16.1 11.5352 15.99 11.795 16C12.0549 16 12.3147 16.1 12.4946 16.29C12.6845 16.48 12.7844 16.74 12.7744 17C12.7744 17.27 12.6845 17.52 12.4946 17.71C12.3147 17.9 12.0549 18 11.795 18ZM7.88722 18C7.62737 18 7.36752 17.9 7.18762 17.71C6.99773 17.52 6.89779 17.26 6.90778 17C6.90778 16.73 7.00772 16.48 7.18762 16.29C7.36752 16.1 7.62737 16 7.88722 16C8.14708 16 8.40693 16.1 8.58683 16.29C8.77672 16.48 8.87666 16.74 8.86667 17C8.86667 17.27 8.77672 17.52 8.58683 17.71C8.40693 17.9 8.14708 18 7.88722 18ZM15.7028 18C15.4429 18 15.1831 17.9 15.0032 17.71C14.8133 17.52 14.7133 17.26 14.7233 17C14.7233 16.73 14.8233 16.48 15.0032 16.29C15.1831 16.1 15.4429 15.99 15.7028 16C15.9626 16 16.2225 16.1 16.4024 16.29C16.5923 16.48 16.6922 16.74 16.6822 17C16.6822 17.27 16.5923 17.52 16.4024 17.71C16.2225 17.9 15.9626 18 15.7028 18ZM4.95889 22C4.43918 22 3.93947 21.79 3.57967 21.41C3.19989 21.04 3 20.53 3 20V6C3 5.47 3.19989 4.96 3.56968 4.59C3.92947 4.21 4.42919 4 4.94889 4H5.92834V3C5.92834 2.73 6.02828 2.48 6.20818 2.29C6.39807 2.1 6.64793 2 6.91778 2C7.17763 2 7.43748 2.1 7.61738 2.29C7.80727 2.48 7.90721 2.74 7.89722 3V4H15.7128V3C15.7128 2.73 15.8127 2.48 15.9926 2.29C16.1725 2.1 16.4324 2 16.6922 2C16.9521 2 17.2119 2.1 17.3918 2.29C17.5817 2.48 17.6817 2.74 17.6717 3V4H18.6511C19.1708 4 19.6705 4.21 20.0303 4.59C20.4101 4.96 20.61 5.47 20.6 6V20C20.6 20.53 20.4001 21.04 20.0303 21.41C19.6705 21.79 19.1708 22 18.6511 22H4.95889ZM4.95889 20H18.6411V10H4.95889V20Z" fill="black"/>
</svg>
