<svg width="57" height="63" viewBox="0 0 57 63" fill="none" xmlns="http://www.w3.org/2000/svg">
<path d="M46.6904 61.5939C46.7803 62.6791 46.8252 63.697 46.8177 64.5876V64.6849C47.1994 64.4005 47.5661 64.1086 47.9253 63.7943C47.6048 63.0133 47.1901 62.2744 46.6904 61.5939ZM13.1768 57.2981C10.4024 54.8816 7.75216 52.3263 5.23615 49.6419C3.13147 47.2501 1.47361 44.4997 0.341565 41.5217C-1.72404 36.1481 6.25398 28.4769 6.25398 28.4769C7.07723 27.4142 13.289 26.9801 13.072 27.8707C11.5752 31.3583 9.97357 34.8758 8.40191 38.3484C9.15032 40.1296 12.4134 43.4226 15.5791 45.2487C16.133 43.7519 16.7541 42.7416 17.4502 42.4647C17.4502 42.4647 28.6763 40.7807 31.1909 40.9678C34.7459 41.2672 40.0296 43.2729 40.1045 42.8987C40.1793 42.5245 40.4113 41.5965 43.4049 45.6529C46.2208 47.1295 48.7929 49.0302 51.0312 51.2884L51.0911 51.3482C54.168 54.8788 56.0558 59.2881 56.4871 63.9514C56.4871 64.1011 56.4871 64.2508 56.4871 64.2508C56.5998 65.0988 56.4754 65.9614 56.1279 66.743C55.9355 67.123 55.6828 67.4693 55.3795 67.7683C55.3795 67.7683 54.6311 68.4045 53.8827 68.9059C51.8844 70.2455 49.6018 71.1062 47.4912 72.2737C47.2634 72.3476 47.0206 72.363 46.7852 72.3185C46.5498 72.2741 46.3294 72.1712 46.1441 72.0193C45.3957 76.4049 44.2656 80.9178 43.2253 85.2137C41.2046 93.5884 36.5346 104.904 34.7159 114.858C34.2893 116.003 27.9279 115.472 27.6959 114.274C27.5761 105.256 29.6941 96.9637 29.6791 87.6535C27.4938 87.4664 23.0333 89.4197 22.7264 89.6592C21.267 90.7968 15.2873 96.4922 15.6315 97.0086C17.1283 99.2538 19.4634 100.855 21.6712 102.36C22.5244 102.951 19.3436 109.148 18.2809 108.759C13.2965 106.918 8.19236 104.478 5.76752 99.8825C5.09104 98.5342 4.69152 97.0641 4.59255 95.5589C4.49357 94.0537 4.69714 92.5439 5.19125 91.1186C6.30637 87.7358 8.54411 84.8919 10.8642 82.2276C11.0962 81.9581 11.3282 81.6962 11.5677 81.4342C11.5095 81.363 11.4723 81.2769 11.4604 81.1856C11.4485 81.0944 11.4623 81.0016 11.5003 80.9178C11.6126 80.6933 11.8221 80.7457 11.9643 80.6185C11.9643 80.6185 11.9643 80.4613 11.9643 80.4389C11.9643 80.2967 11.635 79.8775 11.7248 79.7503C11.8254 79.6494 11.9526 79.5793 12.0916 79.5482C12.0071 79.0539 11.967 78.5529 11.9718 78.0514C11.665 77.4003 12.0167 66.7729 13.1768 57.2981Z" fill="#ED4040"/>
<path fill-rule="evenodd" clip-rule="evenodd" d="M21.8058 54.0799C21.6786 54.3194 21.1921 54.5814 21.0948 54.4616C19.9972 53.0879 19.2521 51.4667 18.9245 49.7392C18.9172 49.5915 18.9587 49.4456 19.0425 49.3239C19.1264 49.2022 19.2479 49.1114 19.3885 49.0656C20.978 48.9496 22.5738 48.9496 24.1633 49.0656C24.2269 49.0887 24.2847 49.1252 24.333 49.1726C24.3812 49.2201 24.4186 49.2773 24.4428 49.3405C24.4669 49.4037 24.4772 49.4713 24.4728 49.5388C24.4685 49.6063 24.4498 49.6721 24.4178 49.7317C23.587 51.004 22.7264 52.3885 21.8058 54.0799Z" fill="#DCDCDC"/>
<path fill-rule="evenodd" clip-rule="evenodd" d="M38.2484 49.5147C38.2484 49.365 38.0164 49.2003 37.8966 49.1928C34.903 49.0881 32.5979 49.2752 30.4125 49.1928C30.2853 49.1928 29.9934 49.365 29.9785 49.4473C29.6202 51.2519 29.605 53.1079 29.9336 54.9182C29.9874 55.0402 30.0712 55.1468 30.1772 55.2279C30.2831 55.309 30.4079 55.3621 30.5398 55.3822C31.8719 55.457 36.6094 55.4495 37.8966 55.3822C37.9949 55.3688 38.0857 55.3221 38.1538 55.2499C38.2219 55.1778 38.2632 55.0844 38.2708 54.9855C38.3082 54.0126 38.3082 50.4801 38.2484 49.5147Z" fill="#DCDCDC"/>
<path d="M40.0895 43.7519C40.5501 44.3283 40.8933 44.9894 41.0998 45.6978C41.8811 48.3009 42.4591 50.9607 42.8286 53.6533C44.1216 62.6595 43.718 71.8281 41.6387 80.6858C41.6387 80.6858 41.5264 81.6887 41.4067 82.5269C40.6059 87.9079 38.9519 93.1094 37.5149 98.3632C36.3175 102.719 35.1724 107.097 34.0349 111.513L33.945 111.715L33.7804 111.857L33.5783 111.932H33.3538L33.1592 111.835L33.0095 111.67L32.9347 111.468V111.251C34.9629 103.213 37.4251 95.2648 39.3635 87.0323C39.8809 84.9367 40.2584 82.809 40.4936 80.6634C40.4936 80.6634 40.8454 79.1067 41.0998 77.8119C43.0681 67.671 43.0307 57.0286 40.3514 47.1796C40.2017 46.6407 39.5057 45.0167 39.3261 44.4853C39.2847 44.3461 39.2847 44.1979 39.3261 44.0587L39.4608 43.8791L39.6479 43.7669H39.8649L40.0895 43.7519Z" fill="#DCDCDC"/>
<path fill-rule="evenodd" clip-rule="evenodd" d="M25.7574 88.3944C25.0689 81.3295 23.7667 74.1298 23.6394 67.0274C23.5047 59.7005 24.6498 52.4858 24.9716 45.114L28.332 45.0467C28.9457 52.4709 28.2496 59.6406 28.4143 67.0274C28.564 73.8379 29.4396 80.8355 29.275 87.6385C28.0724 87.7213 26.8878 87.9758 25.7574 88.3944Z" fill="#B35F5B"/>
<path d="M26.8426 46.4013L26.9623 46.4537C27.0896 46.5435 27.127 46.4013 27.1345 46.768C26.8346 47.8664 26.7233 49.0077 26.8052 50.1433C26.8501 50.4427 27.3515 50.6148 27.2617 51.1088C27.0671 52.1715 25.5254 52.4484 26.0119 53.5486C26.2738 54.1249 26.8875 54.5066 26.9549 55.1502C26.9047 55.852 26.6438 56.5224 26.2064 57.0736C25.967 57.5376 27.5162 57.9567 27.2692 59.1617C27.112 59.9101 26.1615 60.3292 25.8622 61.0177C25.488 61.8709 27.5536 62.7465 26.7154 64.2433C26.3486 64.887 25.0314 64.9918 26.3412 66.2191C26.6631 66.5625 26.8555 67.0071 26.8856 67.4768C26.9156 67.9466 26.7814 68.4121 26.5058 68.7937C26.1601 69.2131 25.9863 69.748 26.0193 70.2905C26.1541 71.0389 27.2692 71.3158 27.2018 72.4384C27.1345 73.561 26.2963 74.3394 26.3561 75.3797C26.401 76.1281 27.4338 76.5247 27.4862 77.5351C27.5386 78.5454 26.4609 79.5333 26.663 80.6185C26.7902 81.3145 28.07 81.4118 28.1149 82.5718C28.1598 83.7319 27.4937 84.6524 27.9353 85.775C28.04 86.037 28.2197 86.4037 28.2197 86.4037C28.3252 86.3899 28.432 86.416 28.5192 86.4769C28.6065 86.5379 28.6678 86.6292 28.6912 86.733C28.8259 87.1521 28.6912 87.7733 28.3469 87.7733C28.0026 87.7733 27.8305 87.2269 27.5985 86.8378C27.1544 86.0493 26.9784 85.1379 27.0971 84.2408C27.2467 83.3876 27.7706 82.4671 26.8127 81.8234C26.4319 81.6073 26.1407 81.2626 25.9912 80.8511C25.8417 80.4396 25.8437 79.9883 25.9969 79.5782C26.2888 78.6203 27.2842 77.8718 26.3412 76.7268C26.1136 76.5235 25.9299 76.276 25.8012 75.9993C25.6726 75.7227 25.6016 75.4227 25.5928 75.1177C25.6377 74.0101 26.7303 72.9548 26.401 72.0118C26.1765 71.3757 25.4057 71.1586 25.2635 70.3578C25.2352 69.6113 25.4622 68.8774 25.9071 68.2773C26.0431 68.1128 26.1395 67.9193 26.1888 67.7117C26.2381 67.504 26.239 67.2878 26.1915 67.0798C25.8697 66.4137 24.6947 66.0395 25.226 64.9468C25.5179 64.3855 26.3037 64.0937 26.2439 63.45C26.1615 62.5669 24.9491 62.1328 25.1736 61.0252C25.3982 59.9175 27.2318 59.4535 26.3412 58.4207C25.8772 57.8894 25.1961 57.4628 25.7649 56.5347L25.9295 56.2504C25.9295 56.183 26.0044 56.1082 26.0343 56.0408C26.0687 55.9807 26.0987 55.9181 26.1241 55.8537C26.2415 55.6418 26.2862 55.3973 26.2514 55.1577C26.0643 54.4093 24.9192 54.0126 25.2335 52.8002C25.4206 52.0518 26.2514 51.6327 26.5582 51.0489C26.6181 50.9367 26.6405 51.004 26.4235 50.8693C26.2374 50.5755 26.1221 50.2424 26.0867 49.8964C26.0135 48.8325 26.1249 47.764 26.416 46.7381C26.5208 46.3938 26.6256 46.4462 26.6256 46.4462H26.7228C26.7613 46.4275 26.8013 46.4124 26.8426 46.4013Z" fill="#949494"/>
<path d="M26.0942 48.3322C26.1384 47.7839 26.2412 47.2419 26.401 46.7156C26.5058 46.3713 26.6106 46.4237 26.6106 46.4237H26.7079C26.7526 46.4192 26.7978 46.4192 26.8426 46.4237L26.9623 46.4761C27.0895 46.5659 27.127 46.4237 27.1344 46.7904C27.0526 47.1061 26.9877 47.4259 26.9399 47.7484L26.8725 48.3396L26.0942 48.3322ZM27.0596 73.2167C26.6924 73.8847 26.4658 74.6208 26.3935 75.3796C26.439 75.6614 26.5696 75.9226 26.7677 76.128L26.5657 76.2403L26.169 76.4573C25.8458 76.0987 25.6718 75.6302 25.6825 75.1476C25.7555 74.6209 25.9282 74.1129 26.1915 73.6508C26.4833 73.4936 26.7677 73.344 27.0596 73.2167ZM27.808 85.1912C27.8305 85.3911 27.8783 85.5872 27.9502 85.775C28.055 86.0369 28.2346 86.4037 28.2346 86.4037C28.3401 86.3899 28.447 86.416 28.5342 86.4769C28.6214 86.5378 28.6827 86.6292 28.7061 86.733C28.7638 86.8919 28.7811 87.0627 28.7562 87.2299C28.7314 87.3972 28.6653 87.5556 28.5639 87.6909L28.2196 87.7433C27.9502 87.6236 27.8155 87.167 27.6508 86.8377C27.4215 86.3974 27.2576 85.9259 27.1644 85.4382L27.808 85.1912Z" fill="#696969"/>
<path d="M40.1718 46.6108C39.9024 45.8624 39.4234 44.8595 39.3261 44.4479C39.2847 44.3087 39.2847 44.1605 39.3261 44.0213L39.4608 43.8417L39.6479 43.7294H39.8649L40.0745 43.7893C40.5351 44.3657 40.8783 45.0268 41.0849 45.7352C41.1372 45.9148 41.1896 46.0944 41.2495 46.274C40.9277 46.3938 40.5909 46.4985 40.2766 46.6108H40.1718ZM41.8108 54.1398C42.0728 53.8105 42.6116 54.0575 42.881 54.252C44.0754 63.0745 43.6442 72.0411 41.6087 80.7082C41.6087 80.7082 41.4965 81.7111 41.3767 82.5493C40.5759 87.9304 38.922 93.1318 37.485 98.3856C36.3175 102.719 35.1724 107.097 34.0349 111.513L33.945 111.715L33.7804 111.857L33.5783 111.932H33.3538L33.1592 111.835L33.0095 111.67L32.9347 111.468V111.251C34.9629 103.213 37.4251 95.2648 39.3635 87.0323C39.8809 84.9367 40.2584 82.809 40.4936 80.6633C40.4936 80.6633 40.8454 79.1067 41.0998 77.8119C42.6631 70.017 42.9035 62.0145 41.8108 54.1398Z" fill="#AAABAD"/>
<path d="M12.9747 80.2816V80.132C12.1498 68.8125 13.6788 57.4448 17.4651 46.7455C17.983 45.2518 18.5826 43.7877 19.2613 42.3598L19.3511 42.2476L19.7103 42.1952L20.0621 42.1428L20.1893 42.2401L20.2941 42.4272V42.6442L20.2342 42.8613C20.2342 42.9137 20.1818 42.9735 20.1519 43.0334C18.3367 47.0424 16.9494 51.2317 16.0132 55.5318C14.1122 63.7643 12.8848 75.2449 14.1122 81.2022C12.3011 81.8907 7.04727 87.0996 7.70586 86.1342C8.00523 85.7076 8.31207 85.281 8.63389 84.8619C9.285 84.2856 10.4825 82.9385 12.2861 81.4192V81.3743C12.0691 80.8429 12.6603 81.0525 12.8624 80.8953C12.8624 80.8953 12.8175 80.7232 12.81 80.7082C12.7352 80.5436 12.331 80.1245 12.7576 80.1993H12.8998L12.9747 80.2816Z" fill="#DCDCDC"/>
<path d="M19.9946 43.3403C19.366 44.7024 18.8047 46.102 18.3032 47.5239C17.8392 47.4266 17.48 47.3443 17.233 47.277C17.2929 47.0973 17.3602 46.9252 17.4201 46.7456C17.8018 45.6903 18.1685 44.6426 18.64 43.6098L19.9946 43.3403ZM12.9297 79.7878C13.2704 79.9031 13.6051 80.0355 13.9325 80.1844C13.9849 80.5362 14.0448 80.8805 14.1122 81.2023C13.304 81.6052 12.5497 82.1081 11.8669 82.6991C11.5307 82.7267 11.1976 82.7843 10.8716 82.8712L10.5872 82.9461C11.0811 82.4821 11.6349 81.9656 12.2711 81.4492V81.4043C12.054 80.873 12.6453 81.0825 12.8473 80.9254C12.8473 80.9254 12.8024 80.7532 12.795 80.7383C12.7201 80.5736 12.316 80.1545 12.7426 80.2293H12.8848L12.9821 80.2743V80.1246L12.9297 79.7878Z" fill="#AAABAD"/>
<path fill-rule="evenodd" clip-rule="evenodd" d="M29.6267 0C40.4786 0 49.8337 5.88997 53.7254 14.2646C55.0318 17.0413 55.709 20.0721 55.7087 23.1408C55.7087 28.1102 54.4663 36.874 51.4502 40.6535C46.7203 46.5659 14.3142 47.5314 9.61424 43.4975C4.71966 39.2839 3.53717 29.6519 3.53717 23.1408C3.53717 10.3654 15.2273 0 29.6267 0Z" fill="#DCDCDC"/>
<path fill-rule="evenodd" clip-rule="evenodd" d="M33.451 0.246948C46.0392 1.89345 55.7086 11.518 55.7086 23.1407C55.7086 28.1102 54.4663 36.874 51.4502 40.6535C49.3397 43.2879 41.7209 44.9419 33.4884 45.6079C43.4048 42.1877 50.4249 33.3191 50.4249 22.9387C50.4249 12.5583 43.3524 3.65969 33.451 0.246948Z" fill="#B7B7B7"/>
<path fill-rule="evenodd" clip-rule="evenodd" d="M7.90796 24.1885C7.90796 13.7707 51.0686 13.7707 51.0686 24.1885C51.0686 34.6063 41.3992 43.0633 29.4846 43.0633C17.5699 43.0633 7.90796 34.6063 7.90796 24.1885Z" fill="#F3BE99"/>
<path fill-rule="evenodd" clip-rule="evenodd" d="M41.1596 25.1839C41.7435 25.1824 42.3146 25.3543 42.8007 25.6777C43.2867 26.0012 43.6658 26.4616 43.8899 27.0007C44.1141 27.5399 44.1731 28.1334 44.0595 28.7061C43.946 29.2788 43.665 29.8049 43.2522 30.2177C42.8393 30.6305 42.3132 30.9115 41.7405 31.0251C41.1679 31.1386 40.5743 31.0796 40.0352 30.8555C39.4961 30.6313 39.0357 30.2522 38.7122 29.7662C38.3888 29.2801 38.2169 28.709 38.2184 28.1252C38.2184 27.3451 38.5283 26.597 39.0799 26.0454C39.6315 25.4938 40.3796 25.1839 41.1596 25.1839Z" fill="#2C2C2C"/>
<path fill-rule="evenodd" clip-rule="evenodd" d="M17.7719 25.1839C18.3554 25.1839 18.9258 25.357 19.4109 25.6814C19.8959 26.0057 20.2739 26.4667 20.4968 27.0059C20.7198 27.5452 20.7777 28.1385 20.6634 28.7107C20.549 29.2829 20.2674 29.8082 19.8543 30.2203C19.4411 30.6324 18.915 30.9127 18.3425 31.0256C17.77 31.1385 17.1769 31.0791 16.6382 30.8547C16.0996 30.6304 15.6395 30.2513 15.3164 29.7654C14.9933 29.2795 14.8216 28.7087 14.8231 28.1251C14.8251 27.3444 15.1367 26.5963 15.6894 26.0449C16.2422 25.4935 16.9911 25.1839 17.7719 25.1839Z" fill="#2C2C2C"/>
<path d="M22.5317 35.9236C23.4523 37.0312 25.1886 37.5925 27.1494 37.6823C31.3405 37.8769 36.5569 35.9236 36.991 32.5857" stroke="#D47B62" stroke-width="0.95" stroke-linecap="round" stroke-linejoin="round"/>
<path d="M28.1599 29.4424C28.1503 29.5719 28.1503 29.702 28.1599 29.8316C28.1599 30.071 28.1599 30.318 28.1599 30.58C28.1599 31.1488 28.2721 32.4285 27.8081 32.8701C27.3441 33.3116 25.039 30.8644 24.9642 32.668C24.9455 32.8572 24.9455 33.0477 24.9642 33.2368C25.0096 33.7169 25.2228 34.1657 25.5663 34.5042C25.9098 34.8427 26.3616 35.0493 26.8423 35.0877C27.323 35.1262 27.8019 34.9939 28.1948 34.7143C28.5877 34.4346 28.8695 34.0254 28.9906 33.5586" stroke="#D47B62" stroke-width="0.95" stroke-linecap="round" stroke-linejoin="round"/>
<path fill-rule="evenodd" clip-rule="evenodd" d="M7.90787 24.1885C7.90787 13.7707 51.0685 13.7707 51.0685 24.1885C50.7991 26.3589 41.3991 23.1407 29.4845 23.1407C17.5698 23.1407 7.36153 26.9426 7.90787 24.1885Z" fill="#818181"/>
<path fill-rule="evenodd" clip-rule="evenodd" d="M37.5897 16.8916C42.6565 17.5577 47.0197 18.8823 49.3248 20.8656C50.3875 21.9807 51.0686 23.1108 51.0686 24.1885C51.0162 24.6526 50.5447 24.8696 49.7214 24.937C47.7232 24.7573 43.7342 23.1483 39.0117 23.1483C37.9211 23.1528 36.8326 23.2428 35.7561 23.4177C33.7803 23.253 31.6773 23.1483 29.4845 23.1483H29.2225C35.6514 20.0274 37.4924 17.8795 37.5897 16.8916Z" fill="#696969"/>
<path fill-rule="evenodd" clip-rule="evenodd" d="M8.22968 22.6992C10.0633 23.7469 19.134 20.888 29.4919 20.888C40.0744 20.888 48.6437 23.4251 50.6494 22.4522C50.9254 22.9813 51.0692 23.5693 51.0685 24.1661C50.7991 26.3364 41.3991 23.1183 29.4845 23.1183C17.5698 23.1183 7.36153 26.8603 7.90787 24.1661C7.91127 23.66 8.02091 23.1602 8.22968 22.6992Z" fill="#949494"/>
<path d="M40.8079 44.9044C44.0485 45.0616 49.7888 49.9337 51.0087 51.3108L51.0685 51.3707C54.1454 54.9012 56.0332 59.3106 56.4645 63.9738C56.4645 64.1235 56.4645 64.2732 56.4645 64.2732C56.58 65.1118 56.4636 65.9659 56.1278 66.743C55.9354 67.123 55.6827 67.4692 55.3794 67.7683C55.3794 67.7683 54.631 68.4044 53.8825 68.9059C51.8843 70.2455 49.6017 71.1062 47.4911 72.2737C46.1216 73.0221 42.2523 68.614 43.577 67.3866C44.6023 66.4586 45.7099 65.5904 46.8325 64.7372C47.2217 64.4379 47.5809 64.1385 47.9701 63.8167C47.3914 62.4187 46.5447 61.1475 45.4779 60.0746C44.0934 58.7275 44.3478 49.335 40.8079 44.9044Z" fill="#ED4040"/>
<path d="M8.07261 39.1492V39.1941V39.1492ZM8.40191 38.4008C9.23265 40.3317 12.9522 44.0213 16.3425 45.7127C16.5296 45.8025 15.7812 50.5699 15.0104 54.0949C14.5239 56.2877 14.0299 58.0016 13.753 57.7846C10.7589 55.2374 7.9152 52.5186 5.23615 49.6419C3.13147 47.2501 1.47361 44.4997 0.341565 41.5217C-1.72404 36.1481 6.25398 28.4769 6.25398 28.4769C7.07723 27.4142 13.289 26.9801 13.072 27.8707C11.5527 31.3583 9.97357 34.8758 8.40191 38.3858V38.4008Z" fill="#ED4040"/>
<path fill-rule="evenodd" clip-rule="evenodd" d="M14.1197 25.1016C14.1945 24.9369 14.7483 24.4505 14.5537 24.6001C14.5537 24.6001 15.3994 24.4355 15.4294 24.458C15.4853 24.5231 15.5262 24.5997 15.5491 24.6825C15.8934 25.7751 13.6706 27.0325 13.5509 27.3842C12.6004 30.2581 10.0259 35.7439 9.98845 35.033C9.88367 32.6156 5.498 29.5771 3.25278 32.1516C2.38463 32.1516 7.36154 25.4159 9.8238 24.0314C9.64487 23.7546 9.50391 23.455 9.40469 23.1408C9.32985 22.8788 9.15772 22.2651 9.40469 22.0331C9.65167 21.8011 10.9015 23.2156 10.6396 22.9312C10.5123 22.3474 10.1157 21.2248 10.4824 20.8431C10.8491 20.4615 11.4628 21.4494 11.5751 21.5915C11.8712 22.0872 12.0289 22.6532 12.0316 23.2306C12.0316 23.2904 12.4582 20.8207 13.0494 20.9853C14.3741 21.3371 12.9746 24.0239 13.0494 24.0837C13.4386 23.5748 14.9429 21.5392 15.5342 22.0181C16.1254 22.4971 14.0673 24.907 14.1197 25.1016Z" fill="#474747"/>
</svg>
